<?xml version="1.0" encoding="UTF-8"?>
<svg id="Layer_1" data-name="Layer 1" xmlns="http://www.w3.org/2000/svg" viewBox="0 0 556.48 542.29">
  <defs>
    <style>
      .cls-1 {
        fill: none;
        stroke: #fff;
        stroke-miterlimit: 10;
      }

      .cls-2 {
        fill: #fff;
        stroke-width: 0px;
      }
    </style>
  </defs>
  <g>
    <rect class="cls-2" x=".5" y=".5" width="555.48" height="85.81" rx="10" ry="10"/>
    <rect class="cls-1" x=".5" y=".5" width="555.48" height="85.81" rx="10" ry="10"/>
  </g>
  <g>
    <rect class="cls-2" x="147.47" y="76.63" width="74.84" height="465.16" rx="10" ry="10"/>
    <rect class="cls-1" x="147.47" y="76.63" width="74.84" height="465.16" rx="10" ry="10"/>
  </g>
  <g>
    <rect class="cls-2" x="172.46" y="143.5" width="305.81" height="69.03" rx="10" ry="10" transform="translate(-15.53 324.1) rotate(-51.88)"/>
    <rect class="cls-1" x="172.46" y="143.5" width="305.81" height="69.03" rx="10" ry="10" transform="translate(-15.53 324.1) rotate(-51.88)"/>
  </g>
  <g>
    <rect class="cls-2" x="311.75" y="232.26" width="69.03" height="320.9" rx="10" ry="10" transform="translate(-168.73 298.39) rotate(-38.22)"/>
    <rect class="cls-1" x="311.75" y="232.26" width="69.03" height="320.9" rx="10" ry="10" transform="translate(-168.73 298.39) rotate(-38.22)"/>
  </g>
</svg>