<?xml version="1.0" standalone="no"?>
<!DOCTYPE svg PUBLIC "-//W3C//DTD SVG 20010904//EN"
 "http://www.w3.org/TR/2001/REC-SVG-20010904/DTD/svg10.dtd">
<svg version="1.0" xmlns="http://www.w3.org/2000/svg"
 width="2320.000000pt" height="2320.000000pt" viewBox="0 0 2320.000000 2320.000000"
 preserveAspectRatio="xMidYMid meet">
<metadata>
Created by potrace 1.14, written by Peter Selinger 2001-2017
</metadata>
<g transform="translate(0.000000,2320.000000) scale(0.100000,-0.100000)"
fill="#000000" stroke="none">
<path d="M388 22895 c-2 -2 -16 -5 -33 -8 -163 -26 -317 -186 -342 -357 -5
-30 -8 -687 -8 -1460 1 -1149 3 -1415 15 -1460 41 -167 183 -297 358 -326 20
-4 1323 -7 2894 -7 l2858 0 2 -9321 c3 -9159 3 -9322 22 -9366 53 -124 147
-219 260 -262 l61 -23 1240 0 1240 0 55 24 c120 54 207 140 253 251 l22 55 5
5033 5 5034 27 -21 c14 -12 36 -40 47 -64 11 -23 31 -53 43 -67 13 -14 43 -52
68 -84 25 -33 92 -119 150 -191 58 -73 116 -147 130 -165 14 -18 131 -167 260
-331 129 -164 332 -421 450 -571 118 -150 220 -280 227 -288 7 -8 123 -157
259 -330 136 -173 292 -371 347 -440 54 -69 109 -138 122 -155 13 -16 95 -120
182 -231 169 -215 254 -323 372 -474 41 -52 77 -97 81 -100 4 -3 20 -23 36
-45 16 -22 59 -79 96 -125 37 -47 124 -157 193 -245 69 -88 131 -167 138 -175
19 -24 207 -262 233 -295 12 -16 78 -100 145 -185 68 -85 158 -200 201 -255
44 -55 84 -107 91 -115 7 -8 37 -47 67 -85 30 -38 60 -77 67 -85 19 -24 190
-242 448 -570 132 -168 245 -312 252 -320 14 -18 175 -221 218 -276 147 -188
420 -535 439 -559 14 -16 44 -55 67 -85 24 -30 48 -61 56 -70 11 -13 181 -230
248 -315 44 -57 385 -490 398 -505 7 -8 93 -118 193 -245 99 -126 267 -340
373 -475 107 -135 204 -258 217 -275 76 -98 151 -193 162 -205 7 -8 76 -96
153 -195 78 -99 154 -196 169 -215 15 -19 122 -154 236 -300 115 -146 222
-280 238 -297 97 -109 279 -158 431 -118 70 19 117 45 201 111 33 27 76 61 95
76 248 195 812 639 839 661 16 13 192 151 284 222 57 45 213 168 316 251 69
55 116 108 142 159 70 137 65 307 -14 431 -24 38 -173 232 -295 384 -7 8 -69
87 -138 175 -69 88 -138 175 -153 194 -14 18 -262 333 -551 700 -288 366 -533
678 -545 692 -12 14 -32 41 -46 59 -14 18 -35 45 -46 59 -12 14 -76 96 -143
181 -67 85 -127 162 -134 170 -21 26 -294 373 -516 655 -78 99 -152 194 -165
210 -13 17 -93 118 -177 225 -84 107 -158 200 -164 207 -12 15 -3 3 -156 198
-235 300 -471 600 -499 635 -15 19 -54 69 -87 110 -33 41 -261 332 -508 645
-247 314 -539 685 -650 825 -110 140 -289 368 -397 505 -394 501 -559 710
-571 725 -6 8 -37 47 -66 85 -30 39 -61 77 -68 85 -8 8 -60 74 -116 146 -169
218 -351 449 -357 454 -3 3 -19 23 -36 45 -88 114 -218 281 -223 285 -3 3 -35
43 -71 90 -35 47 -67 87 -70 90 -3 3 -30 37 -60 75 -30 39 -57 72 -60 75 -3 3
-22 28 -42 55 l-37 51 105 134 c58 74 115 147 127 162 31 38 103 129 364 464
126 159 316 402 423 538 107 137 231 295 275 351 44 57 119 152 166 211 47 60
218 278 379 484 161 206 326 416 365 465 39 50 127 162 197 250 295 377 582
742 603 770 13 17 63 80 112 142 48 61 124 158 168 215 44 57 84 108 90 114 5
6 21 26 35 44 33 43 257 329 278 355 10 11 30 38 47 60 16 22 37 49 46 60 25
29 455 578 514 655 27 36 52 67 55 70 3 3 80 100 170 215 90 116 233 298 318
405 84 107 164 209 176 225 114 146 302 385 320 406 11 15 31 40 43 56 20 26
269 344 331 422 15 19 71 91 125 160 54 69 109 140 122 156 14 17 42 53 64 81
l40 51 2203 0 c1634 1 2216 4 2253 12 148 35 277 158 321 306 17 56 18 148 18
1500 -1 1336 -2 1443 -18 1485 -9 25 -18 50 -20 57 -1 7 -17 35 -34 62 -59 90
-151 154 -263 184 -49 12 -1519 14 -11262 14 -6164 0 -11208 -1 -11209 -2z
m14290 -3626 c-3 -7 -198 -258 -318 -410 -25 -31 -56 -71 -70 -89 -14 -18 -79
-101 -145 -185 -66 -84 -131 -167 -145 -185 -14 -18 -43 -56 -66 -84 -22 -28
-108 -136 -189 -241 -82 -104 -151 -192 -155 -195 -3 -3 -19 -23 -35 -44 -65
-86 -122 -159 -450 -576 -187 -238 -377 -481 -422 -539 -46 -58 -94 -119 -107
-136 -14 -16 -86 -109 -161 -205 -75 -96 -150 -191 -165 -210 -15 -19 -98
-125 -185 -235 -86 -110 -167 -213 -180 -230 -13 -16 -62 -79 -110 -140 -47
-60 -95 -121 -106 -135 -12 -14 -45 -56 -74 -95 -30 -38 -183 -235 -342 -436
-158 -201 -299 -381 -313 -399 -22 -29 -193 -246 -256 -325 -13 -16 -86 -109
-161 -206 -76 -97 -151 -193 -168 -214 -16 -21 -45 -56 -62 -79 -18 -23 -48
-61 -68 -86 -19 -25 -99 -126 -176 -225 -77 -99 -148 -189 -157 -200 -10 -11
-89 -112 -177 -225 -88 -113 -165 -212 -172 -220 -7 -8 -35 -44 -63 -80 -28
-36 -56 -72 -63 -80 -7 -8 -38 -48 -70 -89 l-57 -73 0 3434 c0 1889 2 3437 5
3440 8 8 5386 5 5383 -3z"/>
</g>
</svg>
